<?xml version="1.0" encoding="UTF-8" standalone="no"?>
<svg
   xmlns:dc="http://purl.org/dc/elements/1.1/"
   xmlns:cc="http://creativecommons.org/ns#"
   xmlns:rdf="http://www.w3.org/1999/02/22-rdf-syntax-ns#"
   xmlns:svg="http://www.w3.org/2000/svg"
   xmlns="http://www.w3.org/2000/svg"
   xmlns:sodipodi="http://sodipodi.sourceforge.net/DTD/sodipodi-0.dtd"
   xmlns:inkscape="http://www.inkscape.org/namespaces/inkscape"
   id="svg8"
   version="1.1"
   viewBox="0 0 147.57771 59.019443"
   height="59.019444mm"
   width="147.57771mm"
   sodipodi:docname="sparse_vae.svg"
   inkscape:version="0.92.2 (5c3e80d, 2017-08-06)">
  <sodipodi:namedview
     pagecolor="#ffffff"
     bordercolor="#666666"
     borderopacity="1"
     objecttolerance="10"
     gridtolerance="10"
     guidetolerance="10"
     inkscape:pageopacity="0"
     inkscape:pageshadow="2"
     inkscape:window-width="1920"
     inkscape:window-height="1016"
     id="namedview230"
     showgrid="false"
     inkscape:zoom="1.6936871"
     inkscape:cx="242.28244"
     inkscape:cy="102.62142"
     inkscape:window-x="0"
     inkscape:window-y="27"
     inkscape:window-maximized="1"
     inkscape:current-layer="svg8" />
  <defs
     id="defs2">
    <marker
       style="overflow:visible"
       id="Arrow1Lend"
       refX="0"
       refY="0"
       orient="auto">
      <path
         transform="matrix(-0.8,0,0,-0.8,-10,0)"
         style="fill:#000000;fill-opacity:1;fill-rule:evenodd;stroke:#000000;stroke-width:1.00000003pt;stroke-opacity:1"
         d="M 0,0 5,-5 -12.5,0 5,5 Z"
         id="path1064" />
    </marker>
    <marker
       style="overflow:visible"
       id="Arrow1Lend-3"
       refX="0"
       refY="0"
       orient="auto">
      <path
         transform="matrix(-0.8,0,0,-0.8,-10,0)"
         style="fill:#000000;fill-opacity:1;fill-rule:evenodd;stroke:#000000;stroke-width:1.00000003pt;stroke-opacity:1"
         d="M 0,0 5,-5 -12.5,0 5,5 Z"
         id="path1064-6" />
    </marker>
    <marker
       style="overflow:visible"
       id="Arrow1Lend-2"
       refX="0"
       refY="0"
       orient="auto">
      <path
         transform="matrix(-0.8,0,0,-0.8,-10,0)"
         style="fill:#000000;fill-opacity:1;fill-rule:evenodd;stroke:#000000;stroke-width:1.00000003pt;stroke-opacity:1"
         d="M 0,0 5,-5 -12.5,0 5,5 Z"
         id="path1064-7" />
    </marker>
    <marker
       style="overflow:visible"
       id="Arrow1Lend-2-7"
       refX="0"
       refY="0"
       orient="auto">
      <path
         transform="matrix(-0.8,0,0,-0.8,-10,0)"
         style="fill:#000000;fill-opacity:1;fill-rule:evenodd;stroke:#000000;stroke-width:1.00000003pt;stroke-opacity:1"
         d="M 0,0 5,-5 -12.5,0 5,5 Z"
         id="path1064-7-9" />
    </marker>
    <marker
       style="overflow:visible"
       id="Arrow1Lend-2-0"
       refX="0"
       refY="0"
       orient="auto">
      <path
         transform="matrix(-0.8,0,0,-0.8,-10,0)"
         style="fill:#000000;fill-opacity:1;fill-rule:evenodd;stroke:#000000;stroke-width:1.00000003pt;stroke-opacity:1"
         d="M 0,0 5,-5 -12.5,0 5,5 Z"
         id="path1064-7-2" />
    </marker>
    <marker
       style="overflow:visible"
       id="Arrow1Lend-2-7-7"
       refX="0"
       refY="0"
       orient="auto">
      <path
         transform="matrix(-0.8,0,0,-0.8,-10,0)"
         style="fill:#000000;fill-opacity:1;fill-rule:evenodd;stroke:#000000;stroke-width:1.00000003pt;stroke-opacity:1"
         d="M 0,0 5,-5 -12.5,0 5,5 Z"
         id="path1064-7-9-5" />
    </marker>
    <marker
       style="overflow:visible"
       id="Arrow1Lend-36"
       refX="0"
       refY="0"
       orient="auto">
      <path
         inkscape:connector-curvature="0"
         transform="matrix(-0.8,0,0,-0.8,-10,0)"
         style="fill:#000000;fill-opacity:1;fill-rule:evenodd;stroke:#000000;stroke-width:1.00000003pt;stroke-opacity:1"
         d="M 0,0 5,-5 -12.5,0 5,5 Z"
         id="path1064-75" />
    </marker>
  </defs>
  <metadata
     id="metadata5">
    <rdf:RDF>
      <cc:Work
         rdf:about="">
        <dc:format>image/svg+xml</dc:format>
        <dc:type
           rdf:resource="http://purl.org/dc/dcmitype/StillImage" />
        <dc:title />
      </cc:Work>
    </rdf:RDF>
  </metadata>
  <g
     id="g1349"
     transform="translate(-25.047784,-43.609783)">
    <path
       style="fill:#ffffff;fill-opacity:1;stroke:#000000;stroke-width:0.22553141px;stroke-linecap:butt;stroke-linejoin:miter;stroke-opacity:1"
       d="m 101.09134,67.209891 32.52771,-9.955794 V 97.077256 L 101.09134,85.651489 Z"
       id="path817-6-5"
       inkscape:connector-curvature="0" />
    <path
       style="fill:#ffffff;fill-opacity:1;stroke:#000000;stroke-width:0.22553141px;stroke-linecap:butt;stroke-linejoin:miter;stroke-opacity:1"
       d="m 102.76711,61.732069 32.52771,-9.955793 v 39.823161 l -32.52771,-11.42577 z"
       id="path817-3"
       inkscape:connector-curvature="0" />
  </g>
  <path
     style="fill:none;stroke:#000000;stroke-width:0.5;stroke-linecap:butt;stroke-linejoin:miter;stroke-miterlimit:4;stroke-dasharray:none;stroke-opacity:1;marker-end:url(#Arrow1Lend)"
     d="m 51.124032,32.892846 21.648829,0.267272"
     id="path1059"
     inkscape:connector-curvature="0" />
  <g
     id="g1632"
     transform="translate(0,3.1750001)">
    <g
       transform="translate(-25.047784,-43.609783)"
       id="g1345">
      <path
         inkscape:connector-curvature="0"
         id="path817"
         d="M 71.549057,61.732067 39.02135,51.776274 v 39.82316 L 71.549057,80.173665 Z"
         style="fill:#ffffff;fill-opacity:1;stroke:#000000;stroke-width:0.22553141px;stroke-linecap:butt;stroke-linejoin:miter;stroke-opacity:1" />
    </g>
    <text
       transform="rotate(-19.869021)"
       xml:space="preserve"
       style="font-style:normal;font-variant:normal;font-weight:normal;font-stretch:normal;font-size:3.52777767px;line-height:1;font-family:monospace;-inkscape-font-specification:monospace;letter-spacing:0px;word-spacing:0px;stroke-width:0.26458332"
       x="21.703354"
       y="47.997242"
       id="text872"><tspan
         id="tspan870"
         x="21.703354"
         y="47.997242"
         style="stroke-width:0.26458332">W_mu</tspan></text>
  </g>
  <text
     id="text872-1"
     y="5.3508811"
     x="106.98756"
     style="font-style:normal;font-variant:normal;font-weight:normal;font-stretch:normal;font-size:3.52777767px;line-height:1;font-family:monospace;-inkscape-font-specification:monospace;letter-spacing:0px;word-spacing:0px;stroke-width:0.26458332"
     xml:space="preserve"
     transform="rotate(20.042894)"><tspan
       style="stroke-width:0.26458332"
       y="5.3508811"
       x="106.98756"
       id="tspan870-2">W_out</tspan></text>
  <text
     id="text952"
     y="15.43511"
     x="91.918587"
     style="font-style:normal;font-variant:normal;font-weight:normal;font-stretch:normal;font-size:3.52777767px;line-height:1;font-family:monospace;-inkscape-font-specification:monospace;letter-spacing:0px;word-spacing:0px;stroke-width:0.26458332"
     xml:space="preserve"
     transform="rotate(17.972159)"><tspan
       style="stroke-width:0.26458332"
       y="15.43511"
       x="91.918587"
       id="tspan950">W_out_logvar</tspan></text>
  <path
     inkscape:connector-curvature="0"
     style="fill:#000000;fill-opacity:1;stroke:none;stroke-width:0"
     d="m 3.839078,28.172563 1.372429,-1.539348 c 0.166922,-0.166923 0.241101,-0.241104 1.205501,-0.241104 v -0.556389 c -0.40801,0.01862 -1.020039,0.03712 -1.075678,0.03712 -0.296741,0 -0.890221,-0.03712 -1.224055,-0.03712 v 0.556389 c 0.166922,0 0.315285,0.01862 0.445109,0.09269 -0.0371,0.07413 -0.0371,0.111283 -0.09272,0.148363 l -0.982956,1.11278 -1.168419,-1.353882 h 0.482204 v -0.55639 c -0.315286,0 -1.05714,0.03712 -1.446611,0.03712 -0.370927,0 -0.908771,-0.03712 -1.298245,-0.03712 v 0.55639 h 0.853132 l 1.836085,2.169923 -1.55789,1.743352 C 1.001505,30.527893 0.574934,30.527893 0,30.527893 v 0.556388 c 0.408018,-0.01862 1.038593,-0.03712 1.094232,-0.03712 0.296742,0 0.982956,0.01862 1.205512,0.03712 v -0.556388 c -0.204018,0 -0.426565,-0.05567 -0.426565,-0.129831 0,-0.01862 0,-0.01862 0.07419,-0.111283 l 1.149872,-1.298246 1.298241,1.53935 H 3.931821 v 0.556388 c 0.315287,-0.01862 1.038593,-0.03712 1.428067,-0.03712 0.370926,0 0.908768,0.01862 1.298259,0.03712 V 30.527883 H 5.823546 Z m 0,0"
     id="path845" />
  <g
     id="g1033"
     transform="matrix(0.19874672,0,0,0.19874672,61.003232,-0.616416)">
    <path
       inkscape:connector-curvature="0"
       id="path847"
       d="m -44.938116,128.36962 c 0.264583,-0.30868 0.30868,-0.35278 0.30868,-0.61736 0,-0.57326 -0.396875,-0.57326 -0.926041,-0.57326 h -10.31875 l -0.30868,4.89479 h 1.322916 c 0.132292,-2.86632 1.014236,-3.88056 3.924653,-3.88056 h 2.38125 l -7.849305,10.23056 c -0.264584,0.30868 -0.264584,0.35278 -0.264584,0.61736 0,0.61736 0.396875,0.61736 0.926042,0.61736 h 10.671527 l 0.529167,-5.68854 h -1.322917 c -0.264583,2.86632 -0.705556,4.54201 -4.409722,4.54201 h -2.425347 z m 0,0"
       style="fill:#000000;fill-opacity:1;stroke:none;stroke-width:0" />
    <g
       transform="matrix(2.822222,0,0,2.822222,-494.3122,-240.67824)"
       style="fill:#000000;fill-opacity:1"
       id="g853">
      <path
         inkscape:connector-curvature="0"
         style="stroke:none;stroke-width:0"
         d="m 7.203125,-3.328125 c 0,-0.21875 -0.0625,-0.328125 -0.140625,-0.328125 -0.046875,0 -0.140625,0.078125 -0.140625,0.265625 -0.046875,0.953125 -0.703125,1.5 -1.40625,1.5 -0.625,0 -1.09375,-0.421875 -1.59375,-0.84375 -0.5,-0.46875 -1.015625,-0.921875 -1.703125,-0.921875 -1.078125,0 -1.671875,1.09375 -1.671875,2 0,0.328125 0.125,0.328125 0.140625,0.328125 0.109375,0 0.140625,-0.203125 0.140625,-0.234375 0.046875,-1.09375 0.78125,-1.53125 1.390625,-1.53125 0.625,0 1.109375,0.421875 1.59375,0.84375 0.515625,0.46875 1.03125,0.921875 1.703125,0.921875 1.09375,0 1.6875,-1.09375 1.6875,-2 z m 0,0"
         transform="translate(162.618,134.765)"
         id="path851" />
    </g>
    <g
       transform="matrix(2.822222,0,0,2.822222,-494.3122,-240.67824)"
       style="fill:#000000;fill-opacity:1"
       id="g857">
      <path
         inkscape:connector-curvature="0"
         style="stroke:none;stroke-width:0"
         d="m 4.5,-4.296875 c 0,-0.046875 -0.03125,-0.09375 -0.09375,-0.09375 -0.109375,0 -0.515625,0.390625 -0.671875,0.6875 C 3.515625,-4.25 3.125,-4.40625 2.796875,-4.40625 c -1.171875,0 -2.390625,1.46875 -2.390625,2.921875 0,0.96875 0.578125,1.59375 1.3125,1.59375 0.421875,0 0.8125,-0.234375 1.171875,-0.59375 -0.09375,0.34375 -0.421875,1.6875 -0.453125,1.78125 -0.078125,0.28125 -0.15625,0.3125 -0.71875,0.328125 -0.125,0 -0.21875,0 -0.21875,0.203125 0,0 0,0.109375 0.125,0.109375 0.3125,0 0.671875,-0.03125 1,-0.03125 0.328125,0 0.6875,0.03125 1.03125,0.03125 0.046875,0 0.171875,0 0.171875,-0.203125 C 3.828125,1.625 3.734375,1.625 3.5625,1.625 3.09375,1.625 3.09375,1.5625 3.09375,1.46875 3.09375,1.390625 3.109375,1.328125 3.125,1.25 Z m -2.75,4.1875 c -0.609375,0 -0.640625,-0.765625 -0.640625,-0.9375 0,-0.484375 0.28125,-1.5625 0.453125,-1.984375 0.3125,-0.734375 0.828125,-1.15625 1.234375,-1.15625 0.65625,0 0.796875,0.8125 0.796875,0.875 0,0.0625 -0.546875,2.25 -0.578125,2.28125 C 2.859375,-0.75 2.296875,-0.109375 1.75,-0.109375 Z m 0,0"
         transform="translate(173.134,134.765)"
         id="path855" />
    </g>
    <g
       transform="matrix(2.822222,0,0,2.822222,-494.3122,-240.67824)"
       style="fill:#000000;fill-opacity:1"
       id="g861">
      <path
         inkscape:connector-curvature="0"
         style="stroke:none;stroke-width:0"
         d="m 3.296875,2.390625 c 0,-0.03125 0,-0.046875 -0.171875,-0.21875 C 1.890625,0.921875 1.5625,-0.96875 1.5625,-2.5 c 0,-1.734375 0.375,-3.46875 1.609375,-4.703125 0.125,-0.125 0.125,-0.140625 0.125,-0.171875 0,-0.078125 -0.03125,-0.109375 -0.09375,-0.109375 -0.109375,0 -1,0.6875 -1.59375,1.953125 -0.5,1.09375 -0.625,2.203125 -0.625,3.03125 0,0.78125 0.109375,1.984375 0.65625,3.125 C 2.25,1.84375 3.09375,2.5 3.203125,2.5 c 0.0625,0 0.09375,-0.03125 0.09375,-0.109375 z m 0,0"
         transform="translate(179.6,134.765)"
         id="path859" />
    </g>
    <g
       transform="matrix(2.822222,0,0,2.822222,-494.3122,-240.67824)"
       style="fill:#000000;fill-opacity:1"
       id="g865">
      <path
         inkscape:connector-curvature="0"
         style="stroke:none;stroke-width:0"
         d="M 4.46875,-4 C 4.5625,-4.109375 4.578125,-4.125 4.578125,-4.21875 4.578125,-4.421875 4.4375,-4.421875 4.25,-4.421875 H 0.59375 L 0.484375,-2.6875 h 0.46875 C 1,-3.703125 1.3125,-4.0625 2.34375,-4.0625 H 3.1875 l -2.78125,3.625 C 0.3125,-0.328125 0.3125,-0.3125 0.3125,-0.21875 0.3125,0 0.453125,0 0.640625,0 h 3.78125 l 0.1875,-2.015625 H 4.140625 C 4.046875,-1 3.890625,-0.40625 2.578125,-0.40625 H 1.71875 Z m 0,0"
         transform="translate(183.474,134.765)"
         id="path863" />
    </g>
    <g
       transform="matrix(2.822222,0,0,2.822222,-494.3122,-240.67824)"
       style="fill:#000000;fill-opacity:1"
       id="g869">
      <path
         inkscape:connector-curvature="0"
         style="stroke:none;stroke-width:0"
         d="m 1.578125,-7.125 c 0,-0.171875 0,-0.359375 -0.1875,-0.359375 -0.203125,0 -0.203125,0.1875 -0.203125,0.359375 v 9.265625 c 0,0.171875 0,0.359375 0.203125,0.359375 0.1875,0 0.1875,-0.1875 0.1875,-0.359375 z m 0,0"
         transform="translate(188.566,134.765)"
         id="path867" />
    </g>
    <g
       transform="matrix(2.822222,0,0,2.822222,-494.3122,-240.67824)"
       style="fill:#000000;fill-opacity:1"
       id="g873">
      <path
         inkscape:connector-curvature="0"
         style="stroke:none;stroke-width:0"
         d="M 3.453125,-2.453125 4.609375,-3.75 C 4.75,-3.890625 4.8125,-3.953125 5.625,-3.953125 v -0.46875 c -0.34375,0.015625 -0.859375,0.03125 -0.90625,0.03125 -0.25,0 -0.75,-0.03125 -1.03125,-0.03125 v 0.46875 c 0.140625,0 0.265625,0.015625 0.375,0.078125 -0.03125,0.0625 -0.03125,0.09375 -0.078125,0.125 L 3.15625,-2.8125 2.171875,-3.953125 h 0.40625 v -0.46875 c -0.265625,0 -0.890625,0.03125 -1.21875,0.03125 -0.3125,0 -0.765625,-0.03125 -1.09375,-0.03125 v 0.46875 h 0.71875 L 2.53125,-2.125 1.21875,-0.65625 c -0.15625,0.1875 -0.515625,0.1875 -1,0.1875 V 0 c 0.34375,-0.015625 0.875,-0.03125 0.921875,-0.03125 0.25,0 0.828125,0.015625 1.015625,0.03125 v -0.46875 c -0.171875,0 -0.359375,-0.046875 -0.359375,-0.109375 0,-0.015625 0,-0.015625 0.0625,-0.09375 l 0.96875,-1.09375 1.09375,1.296875 H 3.53125 V 0 c 0.265625,-0.015625 0.875,-0.03125 1.203125,-0.03125 0.3125,0 0.765625,0.015625 1.09375,0.03125 V -0.46875 H 5.125 Z m 0,0"
         transform="translate(191.333,134.765)"
         id="path871" />
    </g>
    <g
       transform="matrix(2.822222,0,0,2.822222,-494.3122,-240.67824)"
       style="fill:#000000;fill-opacity:1"
       id="g877">
      <path
         inkscape:connector-curvature="0"
         style="stroke:none;stroke-width:0"
         d="m 2.875,-2.5 c 0,-0.765625 -0.109375,-1.96875 -0.65625,-3.109375 -0.59375,-1.21875 -1.453125,-1.875 -1.546875,-1.875 -0.0625,0 -0.109375,0.046875 -0.109375,0.109375 0,0.03125 0,0.046875 0.1875,0.234375 0.984375,0.984375 1.546875,2.5625 1.546875,4.640625 0,1.71875 -0.359375,3.46875 -1.59375,4.71875 C 0.5625,2.34375 0.5625,2.359375 0.5625,2.390625 0.5625,2.453125 0.609375,2.5 0.671875,2.5 0.765625,2.5 1.671875,1.8125 2.25,0.546875 2.765625,-0.546875 2.875,-1.65625 2.875,-2.5 Z m 0,0"
         transform="translate(197.38,134.765)"
         id="path875" />
    </g>
  </g>
  <g
     id="g1047"
     transform="matrix(0.42057799,0,0,0.42057799,82.184292,-28.120985)">
    <g
       transform="matrix(2.822222,0,0,2.822222,-494.3122,-240.67824)"
       style="fill:#000000;fill-opacity:1"
       id="g881">
      <path
         inkscape:connector-curvature="0"
         style="stroke:none;stroke-width:0"
         d="M 0.453125,1.21875 C 0.375,1.5625 0.34375,1.625 -0.09375,1.625 c -0.109375,0 -0.21875,0 -0.21875,0.1875 0,0.078125 0.046875,0.125 0.125,0.125 0.265625,0 0.5625,-0.03125 0.828125,-0.03125 0.34375,0 0.671875,0.03125 1,0.03125 0.046875,0 0.171875,0 0.171875,-0.203125 C 1.8125,1.625 1.71875,1.625 1.578125,1.625 c -0.5,0 -0.5,-0.0625 -0.5,-0.15625 0,-0.125 0.421875,-1.75 0.484375,-2 0.125,0.296875 0.40625,0.640625 0.921875,0.640625 1.15625,0 2.40625,-1.453125 2.40625,-2.921875 0,-0.9375 -0.578125,-1.59375 -1.328125,-1.59375 -0.5,0 -0.984375,0.359375 -1.3125,0.75 -0.09375,-0.546875 -0.53125,-0.75 -0.890625,-0.75 -0.46875,0 -0.65625,0.390625 -0.734375,0.5625 C 0.4375,-3.5 0.3125,-2.90625 0.3125,-2.875 c 0,0.109375 0.09375,0.109375 0.109375,0.109375 0.109375,0 0.109375,-0.015625 0.171875,-0.234375 0.171875,-0.703125 0.375,-1.1875 0.734375,-1.1875 0.171875,0 0.3125,0.078125 0.3125,0.453125 0,0.234375 -0.03125,0.34375 -0.078125,0.515625 z m 1.75,-4.328125 C 2.265625,-3.375 2.546875,-3.65625 2.71875,-3.8125 c 0.359375,-0.296875 0.640625,-0.375 0.8125,-0.375 0.390625,0 0.640625,0.34375 0.640625,0.9375 0,0.59375 -0.328125,1.734375 -0.515625,2.109375 -0.34375,0.703125 -0.8125,1.03125 -1.1875,1.03125 C 1.8125,-0.109375 1.6875,-0.9375 1.6875,-1 c 0,-0.015625 0,-0.03125 0.03125,-0.15625 z m 0,0"
         transform="translate(202.915,134.765)"
         id="path879" />
    </g>
    <g
       transform="matrix(2.822222,0,0,2.822222,-494.3122,-240.67824)"
       style="fill:#000000;fill-opacity:1"
       id="g885">
      <path
         inkscape:connector-curvature="0"
         style="stroke:none;stroke-width:0"
         d="m 3.296875,2.390625 c 0,-0.03125 0,-0.046875 -0.171875,-0.21875 C 1.890625,0.921875 1.5625,-0.96875 1.5625,-2.5 c 0,-1.734375 0.375,-3.46875 1.609375,-4.703125 0.125,-0.125 0.125,-0.140625 0.125,-0.171875 0,-0.078125 -0.03125,-0.109375 -0.09375,-0.109375 -0.109375,0 -1,0.6875 -1.59375,1.953125 -0.5,1.09375 -0.625,2.203125 -0.625,3.03125 0,0.78125 0.109375,1.984375 0.65625,3.125 C 2.25,1.84375 3.09375,2.5 3.203125,2.5 c 0.0625,0 0.09375,-0.03125 0.09375,-0.109375 z m 0,0"
         transform="translate(209.588,134.765)"
         id="path883" />
    </g>
    <g
       transform="matrix(2.822222,0,0,2.822222,-494.3122,-240.67824)"
       style="fill:#000000;fill-opacity:1"
       id="g889">
      <path
         inkscape:connector-curvature="0"
         style="stroke:none;stroke-width:0"
         d="M 3.453125,-2.453125 4.609375,-3.75 C 4.75,-3.890625 4.8125,-3.953125 5.625,-3.953125 v -0.46875 c -0.34375,0.015625 -0.859375,0.03125 -0.90625,0.03125 -0.25,0 -0.75,-0.03125 -1.03125,-0.03125 v 0.46875 c 0.140625,0 0.265625,0.015625 0.375,0.078125 -0.03125,0.0625 -0.03125,0.09375 -0.078125,0.125 L 3.15625,-2.8125 2.171875,-3.953125 h 0.40625 v -0.46875 c -0.265625,0 -0.890625,0.03125 -1.21875,0.03125 -0.3125,0 -0.765625,-0.03125 -1.09375,-0.03125 v 0.46875 h 0.71875 L 2.53125,-2.125 1.21875,-0.65625 c -0.15625,0.1875 -0.515625,0.1875 -1,0.1875 V 0 c 0.34375,-0.015625 0.875,-0.03125 0.921875,-0.03125 0.25,0 0.828125,0.015625 1.015625,0.03125 v -0.46875 c -0.171875,0 -0.359375,-0.046875 -0.359375,-0.109375 0,-0.015625 0,-0.015625 0.0625,-0.09375 l 0.96875,-1.09375 1.09375,1.296875 H 3.53125 V 0 c 0.265625,-0.015625 0.875,-0.03125 1.203125,-0.03125 0.3125,0 0.765625,0.015625 1.09375,0.03125 V -0.46875 H 5.125 Z m 0,0"
         transform="translate(213.462,134.765)"
         id="path887" />
    </g>
    <g
       transform="matrix(2.822222,0,0,2.822222,-494.3122,-240.67824)"
       style="fill:#000000;fill-opacity:1"
       id="g893">
      <path
         inkscape:connector-curvature="0"
         style="stroke:none;stroke-width:0"
         d="m 1.578125,-7.125 c 0,-0.171875 0,-0.359375 -0.1875,-0.359375 -0.203125,0 -0.203125,0.1875 -0.203125,0.359375 v 9.265625 c 0,0.171875 0,0.359375 0.203125,0.359375 0.1875,0 0.1875,-0.1875 0.1875,-0.359375 z m 0,0"
         transform="translate(219.509,134.765)"
         id="path891" />
    </g>
    <g
       transform="matrix(2.822222,0,0,2.822222,-494.3122,-240.67824)"
       style="fill:#000000;fill-opacity:1"
       id="g897">
      <path
         inkscape:connector-curvature="0"
         style="stroke:none;stroke-width:0"
         d="M 4.46875,-4 C 4.5625,-4.109375 4.578125,-4.125 4.578125,-4.21875 4.578125,-4.421875 4.4375,-4.421875 4.25,-4.421875 H 0.59375 L 0.484375,-2.6875 h 0.46875 C 1,-3.703125 1.3125,-4.0625 2.34375,-4.0625 H 3.1875 l -2.78125,3.625 C 0.3125,-0.328125 0.3125,-0.3125 0.3125,-0.21875 0.3125,0 0.453125,0 0.640625,0 h 3.78125 l 0.1875,-2.015625 H 4.140625 C 4.046875,-1 3.890625,-0.40625 2.578125,-0.40625 H 1.71875 Z m 0,0"
         transform="translate(222.276,134.765)"
         id="path895" />
    </g>
    <g
       transform="matrix(2.822222,0,0,2.822222,-494.3122,-240.67824)"
       style="fill:#000000;fill-opacity:1"
       id="g901">
      <path
         inkscape:connector-curvature="0"
         style="stroke:none;stroke-width:0"
         d="m 2.875,-2.5 c 0,-0.765625 -0.109375,-1.96875 -0.65625,-3.109375 -0.59375,-1.21875 -1.453125,-1.875 -1.546875,-1.875 -0.0625,0 -0.109375,0.046875 -0.109375,0.109375 0,0.03125 0,0.046875 0.1875,0.234375 0.984375,0.984375 1.546875,2.5625 1.546875,4.640625 0,1.71875 -0.359375,3.46875 -1.59375,4.71875 C 0.5625,2.34375 0.5625,2.359375 0.5625,2.390625 0.5625,2.453125 0.609375,2.5 0.671875,2.5 0.765625,2.5 1.671875,1.8125 2.25,0.546875 2.765625,-0.546875 2.875,-1.65625 2.875,-2.5 Z m 0,0"
         transform="translate(227.368,134.765)"
         id="path899" />
    </g>
  </g>
  <g
     transform="translate(-38.422005,-40.96395)"
     id="g4671">
    <g
       id="g4633">
      <g
         transform="translate(15.902537,27.796031)"
         id="g4584">
        <g
           id="g4255"
           style="fill:#000000;fill-opacity:1"
           transform="matrix(0.8861997,0,0,0.8861997,-92.988953,-100.12662)">
          <path
             inkscape:connector-curvature="0"
             id="path4247"
             transform="translate(148.712,134.765)"
             d="m 0.328125,-6.78125 v 0.296875 c 0.125,0 0.265625,0 0.375,0 0.359375,0 0.65625,0.046875 0.65625,0.4375 V -0.75 c 0,0.375 -0.328125,0.4375 -0.671875,0.4375 -0.125,0 -0.25,0 -0.359375,0 v 0.296875 h 5.75 l 0.40625,-2.5625 h -0.25 C 6.09375,-1.671875 5.96875,-0.671875 4.890625,-0.40625 4.578125,-0.328125 4.25,-0.3125 3.9375,-0.3125 H 2.65625 C 2.46875,-0.3125 2.25,-0.34375 2.25,-0.640625 V -3.375 h 0.90625 c 0.359375,0 0.734375,0.03125 0.9375,0.328125 0.109375,0.21875 0.125,0.484375 0.125,0.734375 v 0.09375 h 0.25 v -2.640625 h -0.25 V -4.75 c 0,0.53125 -0.125,0.96875 -0.703125,1.046875 C 3.3125,-3.6875 3.125,-3.6875 2.9375,-3.6875 H 2.25 V -6.125 c 0,-0.34375 0.203125,-0.359375 0.40625,-0.359375 h 1.203125 c 0.59375,0 1.3125,0 1.703125,0.53125 0.296875,0.40625 0.34375,0.921875 0.40625,1.40625 h 0.25 L 5.9375,-6.78125 Z m 0,0"
             style="stroke:none;stroke-width:0" />
          <path
             inkscape:connector-curvature="0"
             id="path4249"
             transform="translate(155.49055,134.765)"
             d="m 0.3125,-4.296875 v 0.3125 h 0.15625 c 0.328125,0 0.625,0.03125 0.625,0.5 v 2.75 c 0,0.40625 -0.28125,0.421875 -0.71875,0.421875 H 0.3125 v 0.296875 H 2.578125 V -0.3125 H 2.3125 c -0.28125,0 -0.515625,-0.046875 -0.515625,-0.421875 v -1.8125 c 0,-0.71875 0.359375,-1.640625 1.359375,-1.640625 0.625,0 0.6875,0.6875 0.6875,1.109375 V -0.6875 c 0,0.34375 -0.28125,0.375 -0.59375,0.375 H 3.078125 v 0.296875 h 2.25 V -0.3125 h -0.25 c -0.265625,0 -0.53125,-0.046875 -0.53125,-0.390625 V -2.875 c 0,-0.328125 -0.015625,-0.671875 -0.171875,-0.96875 -0.234375,-0.4375 -0.734375,-0.5625 -1.1875,-0.5625 -0.609375,0 -1.25,0.421875 -1.4375,1.015625 L 1.734375,-4.40625 Z m 0,0"
             style="stroke:none;stroke-width:0" />
          <path
             inkscape:connector-curvature="0"
             id="path4251"
             transform="translate(161.02378,134.765)"
             d="m 3.578125,-3.859375 c -0.265625,0.015625 -0.46875,0.1875 -0.46875,0.453125 0,0.28125 0.1875,0.46875 0.453125,0.46875 0.3125,0 0.46875,-0.21875 0.46875,-0.5 V -3.5 C 3.921875,-4.234375 3.078125,-4.46875 2.5,-4.46875 c -1.21875,0 -2.171875,1.0625 -2.171875,2.3125 0,1.125 0.875,2.25 2.171875,2.25 0.65625,0 1.296875,-0.359375 1.5625,-1.046875 0.03125,-0.0625 0.078125,-0.15625 0.078125,-0.21875 0,-0.078125 -0.046875,-0.125 -0.125,-0.125 -0.140625,0 -0.234375,0.375 -0.3125,0.515625 -0.234375,0.375 -0.640625,0.625 -1.09375,0.625 -1.0625,0 -1.390625,-1.0625 -1.4375,-1.84375 v -0.125 c 0,-0.796875 0.1875,-1.984375 1.28125,-2.09375 H 2.53125 c 0.375,0 0.765625,0.109375 1.046875,0.359375 z m 0,0"
             style="stroke:none;stroke-width:0" />
          <path
             inkscape:connector-curvature="0"
             id="path4253"
             transform="translate(165.45016,134.765)"
             d="m 2.34375,-4.46875 c -1.25,0.125 -2.0625,1.1875 -2.0625,2.34375 0,1.125 0.890625,2.21875 2.21875,2.21875 1.1875,0 2.1875,-0.96875 2.1875,-2.234375 0,-1.171875 -0.890625,-2.328125 -2.21875,-2.328125 -0.03125,0 -0.09375,0 -0.125,0 z m -1.234375,2.578125 v -0.4375 c 0,-0.765625 0.25,-1.921875 1.375,-1.921875 0.8125,0 1.265625,0.6875 1.359375,1.4375 0.015625,0.21875 0.015625,0.4375 0.015625,0.65625 0,0.640625 -0.078125,1.453125 -0.703125,1.8125 C 2.953125,-0.203125 2.734375,-0.15625 2.5,-0.15625 1.78125,-0.15625 1.265625,-0.71875 1.15625,-1.5 1.140625,-1.625 1.140625,-1.765625 1.109375,-1.890625 Z m 0,0"
             style="stroke:none;stroke-width:0" />
        </g>
        <g
           id="g4263"
           style="fill:#000000;fill-opacity:1"
           transform="matrix(0.8861997,0,0,0.8861997,-92.988953,-100.12662)">
          <path
             inkscape:connector-curvature="0"
             id="path4257"
             transform="translate(170.70942,134.765)"
             d="m 3.03125,-6.8125 v 0.296875 H 3.1875 c 0.34375,0 0.625,0.046875 0.625,0.625 l -0.015625,2.09375 C 3.5625,-4.203125 2.984375,-4.40625 2.53125,-4.40625 c -1.21875,0 -2.203125,1.0625 -2.203125,2.265625 0,1.0625 0.8125,2.234375 2.140625,2.234375 0.515625,0 0.984375,-0.25 1.3125,-0.640625 V 0.09375 L 5.25,-0.015625 V -0.3125 H 5.078125 c -0.296875,0 -0.609375,-0.03125 -0.609375,-0.5 V -6.921875 Z M 1.171875,-1.90625 V -2.046875 C 1.171875,-2.796875 1.25,-3.53125 1.9375,-4 2.140625,-4.109375 2.375,-4.1875 2.609375,-4.1875 c 0.484375,0 1.171875,0.40625 1.171875,1.03125 0,0.125 0,0.25 0,0.390625 v 1.65625 c 0,0.125 -0.046875,0.21875 -0.125,0.3125 C 3.40625,-0.40625 2.96875,-0.125 2.5,-0.125 1.78125,-0.125 1.3125,-0.78125 1.203125,-1.46875 1.1875,-1.609375 1.1875,-1.765625 1.171875,-1.90625 Z m 0,0"
             style="stroke:none;stroke-width:0" />
          <path
             inkscape:connector-curvature="0"
             id="path4259"
             transform="translate(176.24265,134.765)"
             d="m 1.109375,-2.3125 h 2.875 c 0.109375,0 0.15625,-0.0625 0.15625,-0.1875 0,-1.046875 -0.640625,-1.96875 -1.765625,-1.96875 -1.21875,0 -2.09375,1.09375 -2.09375,2.28125 0,0.90625 0.5,1.734375 1.390625,2.125 0.21875,0.109375 0.484375,0.15625 0.734375,0.15625 H 2.4375 c 0.765625,0 1.40625,-0.421875 1.671875,-1.1875 C 4.125,-1.125 4.125,-1.171875 4.125,-1.203125 4.125,-1.265625 4.09375,-1.3125 4.015625,-1.3125 3.875,-1.3125 3.8125,-0.984375 3.75,-0.875 3.5,-0.4375 3.015625,-0.15625 2.5,-0.15625 c -0.359375,0 -0.6875,-0.203125 -0.953125,-0.46875 -0.40625,-0.46875 -0.4375,-1.109375 -0.4375,-1.6875 z M 1.125,-2.515625 C 1.125,-3.296875 1.53125,-4.25 2.359375,-4.25 H 2.40625 c 0.96875,0.09375 0.96875,1.125 1.0625,1.734375 z m 0,0"
             style="stroke:none;stroke-width:0" />
          <path
             inkscape:connector-curvature="0"
             id="path4261"
             transform="translate(180.66903,134.765)"
             d="m 0.265625,-4.296875 v 0.3125 h 0.15625 c 0.328125,0 0.625,0.03125 0.625,0.5 v 2.75 c 0,0.40625 -0.28125,0.421875 -0.71875,0.421875 h -0.0625 v 0.296875 H 2.6875 V -0.3125 c -0.125,0 -0.265625,0 -0.390625,0 -0.3125,0 -0.578125,-0.046875 -0.578125,-0.421875 v -1.3125 c 0,-0.859375 0.1875,-2.140625 1.171875,-2.140625 0.046875,0 0.0625,0 0.109375,0.015625 -0.15625,0.0625 -0.234375,0.21875 -0.234375,0.390625 0,0.21875 0.15625,0.375 0.390625,0.421875 0.28125,0 0.46875,-0.171875 0.46875,-0.421875 0,-0.40625 -0.375,-0.625 -0.734375,-0.625 -0.59375,0 -1.109375,0.53125 -1.21875,1.0625 v -1.0625 z m 0,0"
             style="stroke:none;stroke-width:0" />
        </g>
      </g>
      <g
         transform="translate(42.228585,27.796031)"
         id="g4595">
        <g
           id="g4273"
           style="fill:#000000;fill-opacity:1"
           transform="matrix(0.8861997,0,0,0.8861997,-92.988953,-100.12662)">
          <path
             inkscape:connector-curvature="0"
             id="path4265"
             transform="translate(187.88793,134.765)"
             d="m 0.34375,-6.8125 v 0.296875 c 0.125,0 0.25,0 0.375,0 0.359375,0 0.640625,0.046875 0.640625,0.4375 V -0.75 c 0,0.375 -0.328125,0.4375 -0.65625,0.4375 -0.140625,0 -0.25,0 -0.359375,0 v 0.296875 h 3.453125 c 1.28125,0 2.46875,-0.609375 3.046875,-2.0625 C 6.984375,-2.5 7.0625,-2.921875 7.0625,-3.359375 c 0,-1.5625 -0.984375,-3.234375 -2.765625,-3.453125 -0.15625,0 -0.328125,0 -0.484375,0 z m 5.703125,3.703125 V -2.90625 C 5.96875,-1.84375 5.625,-0.734375 4.375,-0.40625 4.078125,-0.3125 3.78125,-0.3125 3.484375,-0.3125 H 2.625 c -0.234375,0 -0.40625,-0.0625 -0.40625,-0.359375 0,-0.078125 0,-0.140625 0,-0.203125 v -4.921875 c 0,-0.078125 0,-0.1875 0,-0.28125 0,-0.375 0.140625,-0.4375 0.421875,-0.4375 0.078125,0 0.15625,0 0.21875,0 h 0.65625 c 0.703125,0 1.390625,0.15625 1.890625,0.765625 0.53125,0.640625 0.65625,1.484375 0.65625,2.3125 v 0.09375 c 0,0.078125 0,0.15625 -0.015625,0.234375 z m 0,0"
             style="stroke:none;stroke-width:0" />
          <path
             inkscape:connector-curvature="0"
             id="path4267"
             transform="translate(195.49637,134.765)"
             d="m 1.109375,-2.3125 h 2.875 c 0.109375,0 0.15625,-0.0625 0.15625,-0.1875 0,-1.046875 -0.640625,-1.96875 -1.765625,-1.96875 -1.21875,0 -2.09375,1.09375 -2.09375,2.28125 0,0.90625 0.5,1.734375 1.390625,2.125 0.21875,0.109375 0.484375,0.15625 0.734375,0.15625 H 2.4375 c 0.765625,0 1.40625,-0.421875 1.671875,-1.1875 C 4.125,-1.125 4.125,-1.171875 4.125,-1.203125 4.125,-1.265625 4.09375,-1.3125 4.015625,-1.3125 3.875,-1.3125 3.8125,-0.984375 3.75,-0.875 3.5,-0.4375 3.015625,-0.15625 2.5,-0.15625 c -0.359375,0 -0.6875,-0.203125 -0.953125,-0.46875 -0.40625,-0.46875 -0.4375,-1.109375 -0.4375,-1.6875 z M 1.125,-2.515625 C 1.125,-3.296875 1.53125,-4.25 2.359375,-4.25 H 2.40625 c 0.96875,0.09375 0.96875,1.125 1.0625,1.734375 z m 0,0"
             style="stroke:none;stroke-width:0" />
          <path
             inkscape:connector-curvature="0"
             id="path4269"
             transform="translate(199.92275,134.765)"
             d="m 3.578125,-3.859375 c -0.265625,0.015625 -0.46875,0.1875 -0.46875,0.453125 0,0.28125 0.1875,0.46875 0.453125,0.46875 0.3125,0 0.46875,-0.21875 0.46875,-0.5 V -3.5 C 3.921875,-4.234375 3.078125,-4.46875 2.5,-4.46875 c -1.21875,0 -2.171875,1.0625 -2.171875,2.3125 0,1.125 0.875,2.25 2.171875,2.25 0.65625,0 1.296875,-0.359375 1.5625,-1.046875 0.03125,-0.0625 0.078125,-0.15625 0.078125,-0.21875 0,-0.078125 -0.046875,-0.125 -0.125,-0.125 -0.140625,0 -0.234375,0.375 -0.3125,0.515625 -0.234375,0.375 -0.640625,0.625 -1.09375,0.625 -1.0625,0 -1.390625,-1.0625 -1.4375,-1.84375 v -0.125 c 0,-0.796875 0.1875,-1.984375 1.28125,-2.09375 H 2.53125 c 0.375,0 0.765625,0.109375 1.046875,0.359375 z m 0,0"
             style="stroke:none;stroke-width:0" />
          <path
             inkscape:connector-curvature="0"
             id="path4271"
             transform="translate(204.34914,134.765)"
             d="m 2.34375,-4.46875 c -1.25,0.125 -2.0625,1.1875 -2.0625,2.34375 0,1.125 0.890625,2.21875 2.21875,2.21875 1.1875,0 2.1875,-0.96875 2.1875,-2.234375 0,-1.171875 -0.890625,-2.328125 -2.21875,-2.328125 -0.03125,0 -0.09375,0 -0.125,0 z m -1.234375,2.578125 v -0.4375 c 0,-0.765625 0.25,-1.921875 1.375,-1.921875 0.8125,0 1.265625,0.6875 1.359375,1.4375 0.015625,0.21875 0.015625,0.4375 0.015625,0.65625 0,0.640625 -0.078125,1.453125 -0.703125,1.8125 C 2.953125,-0.203125 2.734375,-0.15625 2.5,-0.15625 1.78125,-0.15625 1.265625,-0.71875 1.15625,-1.5 1.140625,-1.625 1.140625,-1.765625 1.109375,-1.890625 Z m 0,0"
             style="stroke:none;stroke-width:0" />
        </g>
        <g
           id="g4281"
           style="fill:#000000;fill-opacity:1"
           transform="matrix(0.8861997,0,0,0.8861997,-92.988953,-100.12662)">
          <path
             inkscape:connector-curvature="0"
             id="path4275"
             transform="translate(209.60839,134.765)"
             d="m 3.03125,-6.8125 v 0.296875 H 3.1875 c 0.34375,0 0.625,0.046875 0.625,0.625 l -0.015625,2.09375 C 3.5625,-4.203125 2.984375,-4.40625 2.53125,-4.40625 c -1.21875,0 -2.203125,1.0625 -2.203125,2.265625 0,1.0625 0.8125,2.234375 2.140625,2.234375 0.515625,0 0.984375,-0.25 1.3125,-0.640625 V 0.09375 L 5.25,-0.015625 V -0.3125 H 5.078125 c -0.296875,0 -0.609375,-0.03125 -0.609375,-0.5 V -6.921875 Z M 1.171875,-1.90625 V -2.046875 C 1.171875,-2.796875 1.25,-3.53125 1.9375,-4 2.140625,-4.109375 2.375,-4.1875 2.609375,-4.1875 c 0.484375,0 1.171875,0.40625 1.171875,1.03125 0,0.125 0,0.25 0,0.390625 v 1.65625 c 0,0.125 -0.046875,0.21875 -0.125,0.3125 C 3.40625,-0.40625 2.96875,-0.125 2.5,-0.125 1.78125,-0.125 1.3125,-0.78125 1.203125,-1.46875 1.1875,-1.609375 1.1875,-1.765625 1.171875,-1.90625 Z m 0,0"
             style="stroke:none;stroke-width:0" />
          <path
             inkscape:connector-curvature="0"
             id="path4277"
             transform="translate(215.14162,134.765)"
             d="m 1.109375,-2.3125 h 2.875 c 0.109375,0 0.15625,-0.0625 0.15625,-0.1875 0,-1.046875 -0.640625,-1.96875 -1.765625,-1.96875 -1.21875,0 -2.09375,1.09375 -2.09375,2.28125 0,0.90625 0.5,1.734375 1.390625,2.125 0.21875,0.109375 0.484375,0.15625 0.734375,0.15625 H 2.4375 c 0.765625,0 1.40625,-0.421875 1.671875,-1.1875 C 4.125,-1.125 4.125,-1.171875 4.125,-1.203125 4.125,-1.265625 4.09375,-1.3125 4.015625,-1.3125 3.875,-1.3125 3.8125,-0.984375 3.75,-0.875 3.5,-0.4375 3.015625,-0.15625 2.5,-0.15625 c -0.359375,0 -0.6875,-0.203125 -0.953125,-0.46875 -0.40625,-0.46875 -0.4375,-1.109375 -0.4375,-1.6875 z M 1.125,-2.515625 C 1.125,-3.296875 1.53125,-4.25 2.359375,-4.25 H 2.40625 c 0.96875,0.09375 0.96875,1.125 1.0625,1.734375 z m 0,0"
             style="stroke:none;stroke-width:0" />
          <path
             inkscape:connector-curvature="0"
             id="path4279"
             transform="translate(219.568,134.765)"
             d="m 0.265625,-4.296875 v 0.3125 h 0.15625 c 0.328125,0 0.625,0.03125 0.625,0.5 v 2.75 c 0,0.40625 -0.28125,0.421875 -0.71875,0.421875 h -0.0625 v 0.296875 H 2.6875 V -0.3125 c -0.125,0 -0.265625,0 -0.390625,0 -0.3125,0 -0.578125,-0.046875 -0.578125,-0.421875 v -1.3125 c 0,-0.859375 0.1875,-2.140625 1.171875,-2.140625 0.046875,0 0.0625,0 0.109375,0.015625 -0.15625,0.0625 -0.234375,0.21875 -0.234375,0.390625 0,0.21875 0.15625,0.375 0.390625,0.421875 0.28125,0 0.46875,-0.171875 0.46875,-0.421875 0,-0.40625 -0.375,-0.625 -0.734375,-0.625 -0.59375,0 -1.109375,0.53125 -1.21875,1.0625 v -1.0625 z m 0,0"
             style="stroke:none;stroke-width:0" />
        </g>
      </g>
    </g>
    <g
       id="g4611"
       transform="translate(-32.189712,78.978145)">
      <g
         transform="matrix(0.8861997,0,0,0.8861997,-92.988953,-100.12662)"
         style="fill:#000000;fill-opacity:1"
         id="g4293">
        <path
           inkscape:connector-curvature="0"
           style="stroke:none;stroke-width:0"
           d="m 0.328125,-6.8125 v 0.296875 c 0.125,0 0.265625,0 0.375,0 0.359375,0 0.65625,0.046875 0.65625,0.4375 V -0.75 c 0,0.375 -0.328125,0.4375 -0.671875,0.4375 -0.125,0 -0.25,0 -0.359375,0 v 0.296875 h 5.1875 l 0.28125,-2.5625 h -0.25 C 5.46875,-1.78125 5.34375,-0.625 4.203125,-0.40625 3.90625,-0.3125 3.625,-0.3125 3.328125,-0.3125 H 2.59375 C 2.390625,-0.34375 2.25,-0.390625 2.25,-0.65625 v -5.421875 c 0,-0.390625 0.359375,-0.4375 0.6875,-0.4375 0.109375,0 0.203125,0 0.296875,0 h 0.28125 V -6.8125 Z m 0,0"
           transform="translate(226.7869,134.765)"
           id="path4283" />
        <path
           inkscape:connector-curvature="0"
           style="stroke:none;stroke-width:0"
           d="m 1.109375,-3.796875 c 0.25,-0.3125 0.6875,-0.453125 1.0625,-0.453125 0.734375,0 1.0625,0.671875 1.0625,1.375 v 0.265625 c -1.140625,0 -2.828125,0.359375 -2.828125,1.65625 V -0.875 c 0.078125,0.78125 1.046875,0.96875 1.625,0.96875 0.5,0 1.15625,-0.328125 1.28125,-0.84375 0.0625,0.4375 0.34375,0.796875 0.78125,0.796875 0.40625,0 0.765625,-0.328125 0.828125,-0.78125 v -0.71875 h -0.25 v 0.5 c 0,0.28125 -0.0625,0.6875 -0.359375,0.6875 -0.328125,0 -0.375,-0.390625 -0.375,-0.65625 V -2.59375 c 0,-0.125 0.015625,-0.25 0.015625,-0.375 0,-0.96875 -0.90625,-1.5 -1.734375,-1.5 -0.640625,0 -1.515625,0.3125 -1.515625,1.109375 0,0.28125 0.203125,0.484375 0.46875,0.484375 0.28125,0 0.4375,-0.21875 0.4375,-0.46875 0,-0.28125 -0.21875,-0.453125 -0.5,-0.453125 z m 2.125,1.390625 v 1.015625 c 0,0.6875 -0.46875,1.234375 -1.125,1.265625 H 2.078125 C 1.609375,-0.125 1.1875,-0.484375 1.1875,-0.96875 V -1.015625 C 1.25,-2.03125 2.375,-2.375 3.234375,-2.40625 Z m 0,0"
           transform="translate(233.01154,134.765)"
           id="path4285" />
        <path
           inkscape:connector-curvature="0"
           style="stroke:none;stroke-width:0"
           d="m 1.484375,-6.140625 c 0,0.6875 -0.28125,1.9375 -1.3125,1.9375 v 0.21875 H 1.03125 v 2.5625 c 0,0.328125 0.03125,0.671875 0.1875,0.953125 0.21875,0.40625 0.6875,0.5625 1.125,0.5625 0.8125,0 0.96875,-0.90625 0.96875,-1.546875 V -1.8125 H 3.078125 c 0,0.140625 0,0.296875 0,0.453125 0,0.4375 -0.09375,1.203125 -0.6875,1.203125 -0.5625,0 -0.65625,-0.6875 -0.65625,-1.125 V -3.984375 H 3.15625 v -0.3125 H 1.734375 v -1.84375 z m 0,0"
           transform="translate(237.99184,134.765)"
           id="path4287" />
        <path
           inkscape:connector-curvature="0"
           style="stroke:none;stroke-width:0"
           d="m 1.109375,-2.3125 h 2.875 c 0.109375,0 0.15625,-0.0625 0.15625,-0.1875 0,-1.046875 -0.640625,-1.96875 -1.765625,-1.96875 -1.21875,0 -2.09375,1.09375 -2.09375,2.28125 0,0.90625 0.5,1.734375 1.390625,2.125 0.21875,0.109375 0.484375,0.15625 0.734375,0.15625 H 2.4375 c 0.765625,0 1.40625,-0.421875 1.671875,-1.1875 C 4.125,-1.125 4.125,-1.171875 4.125,-1.203125 4.125,-1.265625 4.09375,-1.3125 4.015625,-1.3125 3.875,-1.3125 3.8125,-0.984375 3.75,-0.875 3.5,-0.4375 3.015625,-0.15625 2.5,-0.15625 c -0.359375,0 -0.6875,-0.203125 -0.953125,-0.46875 -0.40625,-0.46875 -0.4375,-1.109375 -0.4375,-1.6875 z M 1.125,-2.515625 C 1.125,-3.296875 1.53125,-4.25 2.359375,-4.25 H 2.40625 c 0.96875,0.09375 0.96875,1.125 1.0625,1.734375 z m 0,0"
           transform="translate(241.8653,134.765)"
           id="path4289" />
        <path
           inkscape:connector-curvature="0"
           style="stroke:none;stroke-width:0"
           d="m 0.3125,-4.296875 v 0.3125 h 0.15625 c 0.328125,0 0.625,0.03125 0.625,0.5 v 2.75 c 0,0.40625 -0.28125,0.421875 -0.71875,0.421875 H 0.3125 v 0.296875 H 2.578125 V -0.3125 H 2.3125 c -0.28125,0 -0.515625,-0.046875 -0.515625,-0.421875 v -1.8125 c 0,-0.71875 0.359375,-1.640625 1.359375,-1.640625 0.625,0 0.6875,0.6875 0.6875,1.109375 V -0.6875 c 0,0.34375 -0.28125,0.375 -0.59375,0.375 H 3.078125 v 0.296875 h 2.25 V -0.3125 h -0.25 c -0.265625,0 -0.53125,-0.046875 -0.53125,-0.390625 V -2.875 c 0,-0.328125 -0.015625,-0.671875 -0.171875,-0.96875 -0.234375,-0.4375 -0.734375,-0.5625 -1.1875,-0.5625 -0.609375,0 -1.25,0.421875 -1.4375,1.015625 L 1.734375,-4.40625 Z m 0,0"
           transform="translate(246.29168,134.765)"
           id="path4291" />
      </g>
      <g
         transform="matrix(0.8861997,0,0,0.8861997,-92.988953,-100.12662)"
         style="fill:#000000;fill-opacity:1"
         id="g4297">
        <path
           inkscape:connector-curvature="0"
           style="stroke:none;stroke-width:0"
           d="m 1.484375,-6.140625 c 0,0.6875 -0.28125,1.9375 -1.3125,1.9375 v 0.21875 H 1.03125 v 2.5625 c 0,0.328125 0.03125,0.671875 0.1875,0.953125 0.21875,0.40625 0.6875,0.5625 1.125,0.5625 0.8125,0 0.96875,-0.90625 0.96875,-1.546875 V -1.8125 H 3.078125 c 0,0.140625 0,0.296875 0,0.453125 0,0.4375 -0.09375,1.203125 -0.6875,1.203125 -0.5625,0 -0.65625,-0.6875 -0.65625,-1.125 V -3.984375 H 3.15625 v -0.3125 H 1.734375 v -1.84375 z m 0,0"
           transform="translate(251.55592,134.765)"
           id="path4295" />
      </g>
      <g
         transform="matrix(0.8861997,0,0,0.8861997,-92.988953,-100.12662)"
         style="fill:#000000;fill-opacity:1"
         id="g4309">
        <path
           inkscape:connector-curvature="0"
           style="stroke:none;stroke-width:0"
           d="m 1.15625,-0.484375 c 0.625,0.484375 1.109375,0.6875 1.890625,0.6875 1.1875,0 1.921875,-1.0625 1.921875,-2.078125 C 4.96875,-2.703125 4.5,-3.46875 3.703125,-3.796875 3.09375,-4.046875 2.34375,-4.03125 1.8125,-4.34375 c -0.390625,-0.25 -0.625,-0.6875 -0.625,-1.125 0,-0.78125 0.671875,-1.296875 1.375,-1.296875 0.984375,0 1.671875,0.796875 1.828125,1.796875 0.03125,0.140625 0,0.40625 0.1875,0.40625 0.109375,0 0.109375,-0.078125 0.109375,-0.171875 v -2.15625 c 0,-0.078125 -0.015625,-0.140625 -0.09375,-0.140625 -0.140625,0 -0.25,0.265625 -0.34375,0.40625 -0.046875,0.078125 -0.125,0.1875 -0.15625,0.28125 -0.421875,-0.40625 -0.890625,-0.6875 -1.546875,-0.6875 -0.984375,0 -2,0.671875 -2,1.9375 0,1.03125 0.765625,1.71875 1.734375,1.921875 C 2.5,-3.125 2.6875,-3.0625 2.90625,-3.015625 3.453125,-2.875 4.015625,-2.734375 4.25,-2.03125 c 0.0625,0.15625 0.09375,0.3125 0.09375,0.46875 0,0.75 -0.515625,1.46875 -1.359375,1.46875 C 2,-0.09375 1.03125,-0.625 0.828125,-1.78125 0.8125,-1.859375 0.8125,-1.96875 0.796875,-2.046875 V -2.125 c 0,-0.09375 -0.046875,-0.140625 -0.125,-0.140625 -0.109375,0 -0.125,0.078125 -0.125,0.140625 v 2.1875 c 0,0.078125 0.015625,0.140625 0.09375,0.140625 0.15625,0 0.265625,-0.265625 0.34375,-0.40625 0.0625,-0.09375 0.125,-0.1875 0.171875,-0.28125 z m 0,0"
           transform="translate(258.74692,134.765)"
           id="path4299" />
        <path
           inkscape:connector-curvature="0"
           style="stroke:none;stroke-width:0"
           d="m 0.265625,-4.296875 v 0.3125 h 0.1875 c 0.296875,0 0.59375,0.03125 0.59375,0.421875 V 1.21875 C 1.046875,1.578125 0.78125,1.609375 0.5,1.609375 H 0.265625 v 0.3125 h 2.25 v -0.3125 H 2.28125 C 1.984375,1.609375 1.75,1.578125 1.75,1.21875 v -1.734375 c 0.234375,0.421875 0.796875,0.609375 1.21875,0.609375 1.234375,0 2.21875,-1.046875 2.21875,-2.25 0,-1.203125 -0.921875,-2.25 -2.09375,-2.25 -0.546875,0 -1.015625,0.234375 -1.375,0.640625 V -4.40625 Z m 4.078125,2.3125 C 4.296875,-1.25 3.90625,-0.203125 3,-0.125 H 2.9375 C 2.515625,-0.125 2.125,-0.359375 1.890625,-0.71875 1.796875,-0.828125 1.75,-0.921875 1.75,-1.0625 V -2.734375 C 1.75,-2.875 1.734375,-3 1.734375,-3.125 1.734375,-3.65625 2.40625,-4.15625 3,-4.15625 c 1,0 1.359375,1.3125 1.359375,2.015625 0,0.046875 0,0.109375 -0.015625,0.15625 z m 0,0"
           transform="translate(264.28015,134.765)"
           id="path4301" />
        <path
           inkscape:connector-curvature="0"
           style="stroke:none;stroke-width:0"
           d="m 1.109375,-3.796875 c 0.25,-0.3125 0.6875,-0.453125 1.0625,-0.453125 0.734375,0 1.0625,0.671875 1.0625,1.375 v 0.265625 c -1.140625,0 -2.828125,0.359375 -2.828125,1.65625 V -0.875 c 0.078125,0.78125 1.046875,0.96875 1.625,0.96875 0.5,0 1.15625,-0.328125 1.28125,-0.84375 0.0625,0.4375 0.34375,0.796875 0.78125,0.796875 0.40625,0 0.765625,-0.328125 0.828125,-0.78125 v -0.71875 h -0.25 v 0.5 c 0,0.28125 -0.0625,0.6875 -0.359375,0.6875 -0.328125,0 -0.375,-0.390625 -0.375,-0.65625 V -2.59375 c 0,-0.125 0.015625,-0.25 0.015625,-0.375 0,-0.96875 -0.90625,-1.5 -1.734375,-1.5 -0.640625,0 -1.515625,0.3125 -1.515625,1.109375 0,0.28125 0.203125,0.484375 0.46875,0.484375 0.28125,0 0.4375,-0.21875 0.4375,-0.46875 0,-0.28125 -0.21875,-0.453125 -0.5,-0.453125 z m 2.125,1.390625 v 1.015625 c 0,0.6875 -0.46875,1.234375 -1.125,1.265625 H 2.078125 C 1.609375,-0.125 1.1875,-0.484375 1.1875,-0.96875 V -1.015625 C 1.25,-2.03125 2.375,-2.375 3.234375,-2.40625 Z m 0,0"
           transform="translate(269.81338,134.765)"
           id="path4303" />
        <path
           inkscape:connector-curvature="0"
           style="stroke:none;stroke-width:0"
           d="m 3.578125,-3.859375 c -0.265625,0.015625 -0.46875,0.1875 -0.46875,0.453125 0,0.28125 0.1875,0.46875 0.453125,0.46875 0.3125,0 0.46875,-0.21875 0.46875,-0.5 V -3.5 C 3.921875,-4.234375 3.078125,-4.46875 2.5,-4.46875 c -1.21875,0 -2.171875,1.0625 -2.171875,2.3125 0,1.125 0.875,2.25 2.171875,2.25 0.65625,0 1.296875,-0.359375 1.5625,-1.046875 0.03125,-0.0625 0.078125,-0.15625 0.078125,-0.21875 0,-0.078125 -0.046875,-0.125 -0.125,-0.125 -0.140625,0 -0.234375,0.375 -0.3125,0.515625 -0.234375,0.375 -0.640625,0.625 -1.09375,0.625 -1.0625,0 -1.390625,-1.0625 -1.4375,-1.84375 v -0.125 c 0,-0.796875 0.1875,-1.984375 1.28125,-2.09375 H 2.53125 c 0.375,0 0.765625,0.109375 1.046875,0.359375 z m 0,0"
           transform="translate(274.79368,134.765)"
           id="path4305" />
        <path
           inkscape:connector-curvature="0"
           style="stroke:none;stroke-width:0"
           d="m 1.109375,-2.3125 h 2.875 c 0.109375,0 0.15625,-0.0625 0.15625,-0.1875 0,-1.046875 -0.640625,-1.96875 -1.765625,-1.96875 -1.21875,0 -2.09375,1.09375 -2.09375,2.28125 0,0.90625 0.5,1.734375 1.390625,2.125 0.21875,0.109375 0.484375,0.15625 0.734375,0.15625 H 2.4375 c 0.765625,0 1.40625,-0.421875 1.671875,-1.1875 C 4.125,-1.125 4.125,-1.171875 4.125,-1.203125 4.125,-1.265625 4.09375,-1.3125 4.015625,-1.3125 3.875,-1.3125 3.8125,-0.984375 3.75,-0.875 3.5,-0.4375 3.015625,-0.15625 2.5,-0.15625 c -0.359375,0 -0.6875,-0.203125 -0.953125,-0.46875 -0.40625,-0.46875 -0.4375,-1.109375 -0.4375,-1.6875 z M 1.125,-2.515625 C 1.125,-3.296875 1.53125,-4.25 2.359375,-4.25 H 2.40625 c 0.96875,0.09375 0.96875,1.125 1.0625,1.734375 z m 0,0"
           transform="translate(279.22007,134.765)"
           id="path4307" />
      </g>
    </g>
  </g>
  <path
     style="opacity:1;fill:#ffffff;fill-opacity:1;stroke:none;stroke-width:2.82200003;stroke-linejoin:round;stroke-miterlimit:4;stroke-dasharray:none;stroke-dashoffset:0;stroke-opacity:1"
     id="path1644"
     sodipodi:type="arc"
     sodipodi:cx="46.006012"
     sodipodi:cy="-15.886785"
     sodipodi:rx="6.4830208"
     sodipodi:ry="5.7019339"
     sodipodi:start="0"
     sodipodi:end="0.63378839"
     d="m 52.489033,-15.886785 a 6.4830208,5.7019339 0 0 1 -1.259069,3.376695 l -5.223952,-3.376695 z" />
  <g
     id="g1739"
     transform="translate(2.1166667)">
    <text
       id="text1636"
       y="11.607472"
       x="50.770645"
       style="font-style:normal;font-variant:normal;font-weight:normal;font-stretch:normal;font-size:3.52777767px;line-height:1;font-family:monospace;-inkscape-font-specification:monospace;letter-spacing:0px;word-spacing:0px;stroke-width:0.26458332"
       xml:space="preserve"><tspan
         style="stroke-width:0.26458332"
         y="11.607472"
         x="50.770645"
         id="tspan1634"
         sodipodi:role="line">log_alpha</tspan></text>
    <circle
       r="1.215086"
       cy="14.434037"
       cx="59.376888"
       id="path1656"
       style="opacity:1;fill:#000000;fill-opacity:1;stroke:none;stroke-width:2.82200003;stroke-linejoin:round;stroke-miterlimit:4;stroke-dasharray:none;stroke-dashoffset:0;stroke-opacity:1" />
    <path
       inkscape:connector-curvature="0"
       id="path1059-3"
       d="m 59.369206,13.50353 0.02238,9.934279"
       style="fill:none;stroke:#000000;stroke-width:0.12140384;stroke-linecap:butt;stroke-linejoin:miter;stroke-miterlimit:4;stroke-dasharray:none;stroke-opacity:1;marker-end:url(#Arrow1Lend-36)" />
  </g>
</svg>
